<svg width="35" height="35" viewBox="0 0 35 35" fill="none" xmlns="http://www.w3.org/2000/svg">
<path d="M31.8502 5.76613H33.158C33.6465 5.76613 34.115 5.96127 34.4605 6.30861C34.8059 6.65595 35 7.12705 35 7.61826V20.5832C35 21.0744 34.8059 21.5455 34.4605 21.8928C34.115 22.2401 33.6465 22.4353 33.158 22.4353H29.474L21.7928 11.6263C21.3461 10.9977 20.715 10.5254 19.9881 10.2753C19.2611 10.0252 18.4746 10.01 17.7385 10.2316L13.1593 11.6133C12.5223 11.805 11.8455 11.8199 11.2008 11.6562C10.5561 11.4925 9.96751 11.1564 9.4974 10.6835L8.95769 10.1409C8.76499 9.94715 8.61744 9.71286 8.52567 9.45489C8.4339 9.19692 8.40019 8.92169 8.42697 8.64904C8.45375 8.37639 8.54036 8.11311 8.68055 7.87817C8.82073 7.64324 9.01101 7.4425 9.23767 7.29043L19.1864 0.622775C19.7803 0.2244 20.4765 0.00811545 21.1903 0.00022393C21.9042 -0.00766758 22.605 0.193173 23.2075 0.578323L30.8628 5.4772C31.1575 5.66546 31.5011 5.76566 31.8502 5.76613ZM5.57576 21.1295L2.59907 23.7484C2.39563 23.9278 2.23397 24.1499 2.12559 24.3992C2.0172 24.6484 1.96475 24.9186 1.97196 25.1905C1.97917 25.4625 2.04586 25.7295 2.1673 25.9726C2.28874 26.2156 2.46194 26.4288 2.6746 26.597L12.1425 34.0796C12.3507 34.2444 12.5917 34.362 12.8491 34.4246C13.1066 34.4872 13.3745 34.4931 13.6345 34.4422C13.8944 34.3912 14.1404 34.2844 14.3557 34.1292C14.5709 33.9739 14.7503 33.7738 14.8816 33.5425L16.1784 31.2607C16.5645 30.5811 16.7267 29.7961 16.6417 29.0182C16.5566 28.2402 16.2287 27.5093 15.705 26.9304L10.7279 21.4259C10.0788 20.7078 9.17546 20.2745 8.21203 20.2191C7.2486 20.1637 6.30201 20.4906 5.57576 21.1295ZM9.29477 3.91401H1.84201C1.35348 3.91401 0.884955 4.10914 0.539512 4.45648C0.194068 4.80382 0 5.27492 0 5.76613V19.6867C9.86209e-05 20.4338 0.224832 21.1633 0.644703 21.7796L0.781012 21.6574L3.75586 19.0385C5.02683 17.9202 6.68346 17.348 8.36957 17.445C10.0557 17.542 11.6366 18.3004 12.7725 19.5571L17.7496 25.0616C18.6656 26.0745 19.2391 27.353 19.3881 28.7138C19.537 30.0746 19.2536 31.4479 18.5785 32.6368L17.372 34.7593C17.8925 34.9578 18.451 35.0351 19.0055 34.9854C19.5599 34.9356 20.096 34.7602 20.5734 34.4723L28.6966 29.5715C28.9145 29.4399 29.1028 29.2645 29.2499 29.0561C29.397 28.8478 29.4997 28.6111 29.5514 28.361C29.6031 28.1108 29.6028 27.8526 29.5505 27.6026C29.4982 27.3526 29.395 27.1161 29.2474 26.9082L19.5456 13.2413C19.4338 13.0844 19.2761 12.9664 19.0945 12.904C18.9128 12.8416 18.7163 12.8378 18.5324 12.8931L13.9532 14.273C12.8384 14.6092 11.6539 14.6358 10.5253 14.3498C9.39673 14.0638 8.36618 13.476 7.54302 12.6486L7.00332 12.106C6.52142 11.6217 6.1524 11.0359 5.92287 10.3909C5.69333 9.74587 5.609 9.05767 5.67596 8.37592C5.74292 7.69417 5.95949 7.03585 6.31007 6.44843C6.66064 5.86102 7.13648 5.35913 7.70328 4.97898L9.29477 3.91401Z" fill="white"/>
</svg>
