<svg width="22" height="30" viewBox="0 0 22 30" fill="none" xmlns="http://www.w3.org/2000/svg">
<path fill-rule="evenodd" clip-rule="evenodd" d="M11 0C9.05508 0 7.18982 0.790176 5.81455 2.1967C4.43928 3.60322 3.66667 5.51088 3.66667 7.5C3.66667 9.48912 4.43928 11.3968 5.81455 12.8033C7.18982 14.2098 9.05508 15 11 15C12.9449 15 14.8102 14.2098 16.1854 12.8033C17.5607 11.3968 18.3333 9.48912 18.3333 7.5C18.3333 5.51088 17.5607 3.60322 16.1854 2.1967C14.8102 0.790176 12.9449 0 11 0ZM7.33333 16.875C5.38841 16.875 3.52315 17.6652 2.14788 19.0717C0.772617 20.4782 0 22.3859 0 24.375V26.25C0 27.2446 0.386308 28.1984 1.07394 28.9016C1.76157 29.6049 2.69421 30 3.66667 30H18.3333C19.3058 30 20.2384 29.6049 20.9261 28.9016C21.6137 28.1984 22 27.2446 22 26.25V24.375C22 22.3859 21.2274 20.4782 19.8521 19.0717C18.4768 17.6652 16.6116 16.875 14.6667 16.875H7.33333Z" fill="white"/>
</svg>
