<svg width="30" height="29" viewBox="0 0 30 29" fill="none" xmlns="http://www.w3.org/2000/svg">
<path d="M21.7744 16.4034L18.1594 22.0109C17.8511 22.4714 17.424 22.661 16.8781 22.5798C16.3322 22.4985 15.9886 22.187 15.8474 21.6452L14.6704 17.0941L3.1947 28.1873C2.88644 28.4853 2.50139 28.6413 2.03956 28.6554C1.57773 28.6695 1.17812 28.5135 0.840711 28.1873C0.53245 27.8893 0.37832 27.5101 0.37832 27.0496C0.37832 26.589 0.53245 26.2098 0.840711 25.9118L12.3164 14.778L7.60843 13.6402C7.04796 13.5048 6.72569 13.1732 6.64161 12.6455C6.55754 12.1178 6.75371 11.7044 7.23011 11.4053L13.031 7.9514L12.5266 1.328C12.4705 0.786213 12.6947 0.393414 13.1992 0.149608C13.7036 -0.0941979 14.166 -0.0400185 14.5863 0.312146L19.8408 4.57875L26.1881 2.10006C26.7206 1.88334 27.183 1.96461 27.5753 2.34386C27.9676 2.72312 28.0517 3.17009 27.8275 3.6848L25.2634 9.82059L29.6771 14.8592C30.0414 15.2656 30.0974 15.7126 29.8452 16.2002C29.593 16.6878 29.1867 16.9045 28.6262 16.8503L21.7744 16.4034ZM0.252213 5.51334C0.0840708 5.35081 0 5.16118 0 4.94446C0 4.72775 0.0840708 4.53812 0.252213 4.37558L2.43806 2.26259C2.6062 2.10006 2.80237 2.01879 3.02656 2.01879C3.25075 2.01879 3.44691 2.10006 3.61506 2.26259L5.8009 4.37558C5.96905 4.53812 6.05312 4.72775 6.05312 4.94446C6.05312 5.16118 5.96905 5.35081 5.8009 5.51334L3.61506 7.62633C3.44691 7.78887 3.25075 7.87014 3.02656 7.87014C2.80237 7.87014 2.6062 7.78887 2.43806 7.62633L0.252213 5.51334ZM24.2965 28.7562L22.1107 26.6432C21.9426 26.4807 21.8585 26.291 21.8585 26.0743C21.8585 25.8576 21.9426 25.668 22.1107 25.5054L24.2965 23.3925C24.4647 23.2299 24.6608 23.1487 24.885 23.1487C25.1092 23.1487 25.3054 23.2299 25.4735 23.3925L27.6594 25.5054C27.8275 25.668 27.9116 25.8576 27.9116 26.0743C27.9116 26.291 27.8275 26.4807 27.6594 26.6432L25.4735 28.7562C25.3054 28.9187 25.1092 29 24.885 29C24.6608 29 24.4647 28.9187 24.2965 28.7562Z" fill="white"/>
</svg>
