<svg width="30" height="30" viewBox="0 0 30 30" fill="none" xmlns="http://www.w3.org/2000/svg">
<path d="M24.9999 11.7959H17.5C16.3728 11.7959 15.2918 12.2437 14.4948 13.0407C13.6977 13.8377 13.25 14.9186 13.25 16.0458C13.25 17.1729 13.6977 18.2539 14.4948 19.0509C15.2918 19.8479 16.3728 20.2957 17.5 20.2957H20.7499C21.8771 20.2957 22.9581 20.7434 23.7551 21.5404C24.5522 22.3374 24.9999 23.4184 24.9999 24.5456C24.9999 25.6727 24.5522 26.7537 23.7551 27.5507C22.9581 28.3477 21.8771 28.7955 20.7499 28.7955H5" stroke="white" stroke-width="1.5" stroke-linecap="round" stroke-linejoin="round"/>
<path fill-rule="evenodd" clip-rule="evenodd" d="M4.99999 17.749C6.06085 17.749 7.07826 18.1704 7.82841 18.9206C8.57855 19.6707 8.99997 20.6881 8.99997 21.7489V21.8989C9.00002 22.7762 8.72205 23.6309 8.20598 24.3403L5.00799 28.7377C5.00706 28.739 5.00585 28.74 5.00446 28.7407C5.00307 28.7414 5.00154 28.7417 4.99999 28.7417C4.99843 28.7417 4.9969 28.7414 4.99552 28.7407C4.99413 28.74 4.99292 28.739 4.99199 28.7377L1.794 24.3403C1.27792 23.6309 0.99995 22.7762 1 21.8989V21.7489C1 20.6881 1.42143 19.6707 2.17157 18.9206C2.92171 18.1704 3.93912 17.749 4.99999 17.749ZM5.79748 20.114L5.77349 20.1025C5.53165 19.9882 5.26748 19.9289 4.99999 19.9289C4.73249 19.9289 4.46833 19.9882 4.22649 20.1025L4.20299 20.1135C3.96381 20.2263 3.7533 20.3918 3.58729 20.5977C3.42128 20.8035 3.30408 21.0443 3.24449 21.3019C3.18456 21.5632 3.18493 21.8347 3.24558 22.0958C3.30622 22.3569 3.42554 22.6008 3.59449 22.8089C3.76174 23.0148 3.97268 23.181 4.21204 23.2954C4.4514 23.4098 4.71319 23.4696 4.97849 23.4704H5.02099C5.28628 23.4696 5.54808 23.4098 5.78744 23.2954C6.02679 23.181 6.23773 23.0148 6.40498 22.8089C6.57402 22.6008 6.69343 22.357 6.75416 22.0959C6.81489 21.8348 6.81534 21.5632 6.75548 21.3019C6.69595 21.0443 6.57883 20.8036 6.4129 20.5977C6.24698 20.3919 6.03657 20.2268 5.79748 20.114Z" fill="white"/>
<path d="M9.99997 21.7499C9.99997 18.9884 7.76148 16.75 4.99998 16.75V18.7499C5.79563 18.7499 6.55869 19.066 7.1213 19.6286C7.68391 20.1912 7.99997 20.9542 7.99997 21.7499H9.99997ZM9.99997 21.8999V21.7499H7.99997V21.8999H9.99997ZM9.01497 24.9293C9.65522 24.049 10.0001 22.9884 9.99997 21.8999H7.99997C8.00002 22.5657 7.7891 23.2144 7.39748 23.7528L9.01497 24.9293ZM5.81648 29.3267L9.01497 24.9293L7.39748 23.7528L4.19899 28.1507L5.81648 29.3267ZM4.18349 29.3267C4.2772 29.4554 4.40002 29.5601 4.54191 29.6323C4.68381 29.7045 4.84077 29.7422 4.99998 29.7422C5.1592 29.7422 5.31616 29.7045 5.45805 29.6323C5.59995 29.5601 5.72277 29.4554 5.81648 29.3267L4.19899 28.1507C4.29081 28.0243 4.41126 27.9214 4.55048 27.8504C4.6897 27.7795 4.84373 27.7425 4.99998 27.7425C5.15624 27.7425 5.31027 27.7795 5.44949 27.8504C5.58871 27.9214 5.70915 28.0243 5.80098 28.1507L4.18349 29.3267ZM0.984997 24.9293L4.18349 29.3267L5.80098 28.1507L2.60249 23.7528L0.984997 24.9293ZM1.78234e-08 21.8999C-9.05191e-05 22.9884 0.344744 24.049 0.984997 24.9293L2.60249 23.7528C2.21097 23.2145 2.00005 22.566 1.99999 21.9004L1.78234e-08 21.8999ZM1.78234e-08 21.7499V21.8999L1.99999 21.9004V21.7499H1.78234e-08ZM4.99998 16.75C2.23849 16.75 1.78234e-08 18.9884 1.78234e-08 21.7499H1.99999C1.99999 20.9542 2.31606 20.1912 2.87867 19.6286C3.44128 19.066 4.20434 18.7499 4.99998 18.7499V16.75ZM5.34548 21.0074L5.36948 21.0184L6.22448 19.2104L6.20098 19.1994L5.34548 21.0074ZM4.65449 21.0074C4.76254 20.9564 4.88052 20.93 4.99998 20.93C5.11945 20.93 5.23743 20.9564 5.34548 21.0074L6.20048 19.1994C5.82506 19.022 5.41498 18.93 4.99973 18.93C4.58449 18.93 4.17441 19.022 3.79899 19.1994L4.65449 21.0074ZM4.63049 21.0184L4.65449 21.0074L3.79949 19.1994L3.77499 19.2104L4.63049 21.0184ZM4.21849 21.5294C4.27049 21.3049 4.42199 21.1169 4.63049 21.0184L3.77549 19.2104C3.40004 19.3877 3.0696 19.6476 2.80896 19.9708C2.54831 20.2939 2.36422 20.6719 2.27049 21.0764L4.21849 21.5294ZM4.37099 22.1794C4.29809 22.0896 4.2465 21.9845 4.22009 21.8719C4.19367 21.7593 4.19312 21.6422 4.21849 21.5294L2.27049 21.0764C2.17614 21.4861 2.17645 21.9119 2.27141 22.3214C2.36637 22.731 2.55347 23.1135 2.81849 23.4398L4.37099 22.1794ZM4.97848 22.4714C4.86196 22.4705 4.74706 22.4439 4.64203 22.3934C4.537 22.3429 4.44444 22.2698 4.37099 22.1794L2.81849 23.4398C3.07944 23.7612 3.40865 24.0206 3.78225 24.199C4.15585 24.3774 4.56447 24.4704 4.97848 24.4713V22.4714ZM5.02098 22.4714H4.97848V24.4713H5.02098V22.4714ZM5.62848 22.1794C5.47848 22.3644 5.25198 22.4714 5.02098 22.4714V24.4713C5.43496 24.4705 5.84355 24.3775 6.21715 24.1992C6.59075 24.0209 6.91998 23.7617 7.18098 23.4403L5.62848 22.1794ZM5.78148 21.5294C5.80684 21.6422 5.8063 21.7593 5.77988 21.8719C5.75347 21.9845 5.70188 22.0901 5.62898 22.1799L7.18148 23.4398C7.44649 23.1135 7.6336 22.731 7.72855 22.3214C7.82351 21.9119 7.82383 21.4861 7.72948 21.0764L5.78148 21.5294ZM5.36948 21.0184C5.57748 21.1169 5.72948 21.3049 5.78148 21.5294L7.72948 21.0764C7.63575 20.6719 7.45166 20.2939 7.19101 19.9708C6.93036 19.6476 6.59992 19.3877 6.22448 19.2104L5.36948 21.0184Z" fill="white"/>
<path fill-rule="evenodd" clip-rule="evenodd" d="M25 1.00098C27.209 1.00098 29 2.82043 29 5.02937C29.0001 5.90075 28.7201 6.7491 28.2015 7.44931L25.008 11.7402C25.0071 11.7414 25.0058 11.7424 25.0045 11.7431C25.0031 11.7438 25.0015 11.7442 25 11.7442C24.9984 11.7442 24.9969 11.7438 24.9955 11.7431C24.9941 11.7424 24.9929 11.7414 24.992 11.7402L21.7985 7.44931C21.2798 6.7491 20.9999 5.90075 21 5.02937C21 2.82043 22.791 1.00148 25 1.00148M25.8165 3.32142L25.7625 3.29642C25.5235 3.18579 25.2633 3.12848 25 3.12848C24.7366 3.12848 24.4765 3.18579 24.2375 3.29642L24.1835 3.32142C23.9478 3.43031 23.7402 3.59193 23.5769 3.7938C23.4136 3.99567 23.2989 4.23238 23.2416 4.48565C23.1843 4.73892 23.186 5.00196 23.2466 5.25446C23.3072 5.50695 23.425 5.74214 23.591 5.94185L23.608 5.96285C23.7722 6.16009 23.9777 6.31881 24.21 6.42777C24.4424 6.53672 24.6959 6.59325 24.9525 6.59333H25.0475C25.5675 6.59333 26.06 6.36234 26.392 5.96285L26.409 5.94235C26.5749 5.74264 26.6928 5.50745 26.7533 5.25495C26.8139 5.00246 26.8157 4.73942 26.7584 4.48615C26.7011 4.23288 26.5864 3.99617 26.4231 3.7943C26.2598 3.59243 26.0522 3.43031 25.8165 3.32142Z" fill="white"/>
<path d="M30 5.02837C30 2.27594 27.7705 0 25 0V1.99995C26.6475 1.99995 28 3.36191 28 5.02787L30 5.02837ZM29.0035 8.04479C29.6505 7.1722 29.9999 6.11469 30 5.02837L28 5.02787C28.0001 5.68414 27.7897 6.32363 27.3995 6.85132L29.0035 8.04479ZM25.81 12.3357L29.0035 8.04479L27.3995 6.85082L24.2055 11.1422L25.81 12.3357ZM24.19 12.3357C24.284 12.4619 24.4062 12.5644 24.5468 12.635C24.6874 12.7056 24.8426 12.7423 25 12.7423C25.1573 12.7423 25.3125 12.7056 25.4532 12.635C25.5938 12.5644 25.716 12.4619 25.81 12.3357L24.2055 11.1422C24.2976 11.0183 24.4174 10.9172 24.5554 10.8478C24.6933 10.7785 24.8456 10.7424 25 10.7424C25.1544 10.7424 25.3066 10.7785 25.4446 10.8478C25.5825 10.9172 25.7024 11.0183 25.7945 11.1422L24.19 12.3357ZM20.996 8.04479L24.19 12.3357L25.7945 11.1422L22.6005 6.85082L20.996 8.04479ZM20 5.02837C20 6.10934 20.348 7.17331 20.996 8.04479L22.6005 6.85132C22.2101 6.32369 22 5.68469 22 5.02837H20ZM25 0C22.2295 0 20 2.27594 20 5.02837H22C22 3.36241 23.3525 1.99995 25 1.99995V0ZM25.343 4.20239L25.397 4.22739L26.2365 2.41244L26.182 2.38744L25.343 4.20239ZM24.657 4.20239C24.7645 4.15286 24.8816 4.12721 25 4.12721C25.1184 4.12721 25.2354 4.15286 25.343 4.20239L26.182 2.38744C25.8114 2.21637 25.4081 2.12777 25 2.12777C24.5918 2.12777 24.1886 2.21637 23.818 2.38744L24.657 4.20239ZM24.603 4.22739L24.657 4.20239L23.818 2.38744L23.7635 2.41244L24.603 4.22739ZM24.219 4.69738C24.268 4.48988 24.4095 4.31689 24.603 4.22739L23.7635 2.41244C23.3935 2.58365 23.0672 2.83657 22.8091 3.15216C22.551 3.46775 22.3679 3.83778 22.2735 4.23439L24.219 4.69738ZM24.36 5.30086C24.2913 5.21798 24.2428 5.12028 24.2184 5.01547C24.1939 4.91066 24.1941 4.80209 24.219 4.69738L22.2735 4.23439C22.1769 4.64105 22.1757 5.06462 22.271 5.47159C22.3663 5.87857 22.5549 6.25781 22.822 6.57933L24.36 5.30086ZM24.3775 5.32136L24.36 5.30136L22.822 6.57933L22.839 6.59933L24.3775 5.32136ZM24.9525 5.59135C24.73 5.59135 24.5195 5.49236 24.3775 5.32136L22.839 6.60033C23.097 6.9105 23.4201 7.15961 23.7853 7.33096C24.1506 7.5023 24.549 7.59119 24.9525 7.5913V5.59135ZM25.0475 5.59135H24.9525V7.5913H25.0475V5.59135ZM25.6225 5.32136C25.4805 5.49236 25.27 5.59135 25.0475 5.59135V7.5913C25.4509 7.59119 25.8494 7.5023 26.2147 7.33096C26.5799 7.15961 26.903 6.91 27.161 6.59983L25.6225 5.32136ZM25.64 5.30136L25.6225 5.32136L27.161 6.59983L27.178 6.57983L25.64 5.30136ZM25.781 4.69688C25.8315 4.90937 25.7795 5.13286 25.64 5.30086L27.178 6.57983C27.4451 6.25831 27.6337 5.87857 27.729 5.47159C27.8243 5.06462 27.8236 4.64155 27.727 4.23489L25.781 4.69688ZM25.397 4.22739C25.5905 4.31689 25.732 4.48938 25.781 4.69688L27.727 4.23489C27.6326 3.83814 27.4495 3.46748 27.1913 3.1518C26.9331 2.83611 26.6066 2.58364 26.2365 2.41244L25.397 4.22739Z" fill="white"/>
</svg>
