<svg width="29" height="28" viewBox="0 0 29 28" fill="none" xmlns="http://www.w3.org/2000/svg">
<path d="M25.5294 14H11.5588M22.5882 18.5L27 14L22.5882 9.5M15.2353 6.5V5C15.2353 4.20435 14.9254 3.44129 14.3738 2.87868C13.8223 2.31607 13.0742 2 12.2941 2H4.94118C4.16113 2 3.41303 2.31607 2.86145 2.87868C2.30987 3.44129 2 4.20435 2 5V23C2 23.7956 2.30987 24.5587 2.86145 25.1213C3.41303 25.6839 4.16113 26 4.94118 26H12.2941C13.0742 26 13.8223 25.6839 14.3738 25.1213C14.9254 24.5587 15.2353 23.7956 15.2353 23V21.5" stroke="white" stroke-width="4" stroke-linecap="round" stroke-linejoin="round"/>
</svg>
