<?xml version="1.0" encoding="UTF-8" standalone="no"?>
<!-- Created with Inkscape (http://www.inkscape.org/) -->

<svg
   width="128"
   height="128"
   viewBox="0 0 33.866666 33.866666"
   version="1.1"
   id="svg1"
   xml:space="preserve"
   xmlns="http://www.w3.org/2000/svg"
   xmlns:svg="http://www.w3.org/2000/svg"><defs
     id="defs1" /><g
     id="layer1"
     transform="translate(-15.812591,-21.179984)"><path
       style="fill:#004e89;fill-opacity:1;stroke-width:1.00012"
       d="m 15.812591,21.271914 6.640109,-0.09193 c -0.0488,3.871055 1.93043,6.158176 6.267545,6.603736 l 0.04803,6.291558 c -2.90766,-0.07563 -4.869374,-0.718834 -6.339585,-1.656937 -0.243885,2.802903 0.229973,4.477922 1.104625,5.523124 0.981574,0.983488 2.232912,2.134067 4.214383,2.353331 1.906444,-0.01855 3.972092,0.02339 5.439077,-1.752991 1.051264,-1.073404 1.842118,-2.396865 2.017141,-4.49054 l 6.219518,-0.02402 c 0.021,2.669974 -0.558709,5.109888 -2.041155,7.204074 -1.10007,1.388292 -2.430279,2.565623 -3.914214,3.602038 -1.5684,0.915716 -3.049818,1.331287 -4.49054,1.512856 -1.814701,0.295733 -3.346101,0.213733 -4.778703,0 C 24.700742,46.135334 23.326821,45.531287 22.020459,44.7133 20.727008,43.757479 19.551817,42.683398 18.514476,41.471466 17.457087,40.264557 16.708934,38.685865 16.19211,36.790348 16.006898,36.11106 15.892184,34.97962 15.888096,34.275435 Z"
       id="path1"
       transform="translate(4.209495,4.3030393)" /></g></svg>
