<svg width="35" height="35" viewBox="0 0 35 35" fill="none" xmlns="http://www.w3.org/2000/svg">
<path fill-rule="evenodd" clip-rule="evenodd" d="M25.7471 35.0027C23.2228 34.9098 16.069 33.9211 8.5768 26.4306C1.08639 18.9383 0.0994666 11.7861 0.00480662 9.26006C-0.13543 5.4105 2.81305 1.67138 6.21906 0.211137C6.62921 0.0340273 7.07837 -0.0334039 7.52244 0.0154607C7.96652 0.0643252 8.39026 0.227806 8.75209 0.489862C11.5568 2.53385 13.4921 5.62612 15.1539 8.05751C15.5196 8.5917 15.6759 9.24174 15.5931 9.88377C15.5104 10.5258 15.1943 11.1149 14.7052 11.5389L11.2851 14.079C11.1199 14.1983 11.0036 14.3736 10.9578 14.5722C10.912 14.7708 10.9399 14.9793 11.0362 15.1589C11.811 16.5665 13.1888 18.6631 14.7665 20.2408C16.3442 21.8185 18.5406 23.2875 20.0464 24.15C20.2352 24.2559 20.4575 24.2856 20.6674 24.2327C20.8774 24.1799 21.0592 24.0487 21.1753 23.866L23.4016 20.4774C23.8109 19.9337 24.4147 19.5695 25.0865 19.461C25.7583 19.3525 26.4461 19.5082 27.0057 19.8954C29.4721 21.6029 32.3505 23.5049 34.4575 26.2027C34.7409 26.5672 34.9211 27.001 34.9794 27.459C35.0377 27.9169 34.9719 28.3821 34.7889 28.8059C33.3216 32.2295 29.6088 35.1447 25.7471 35.0027Z" fill="white"/>
</svg>
