<?xml version="1.0" encoding="UTF-8" standalone="no"?>
<!-- Created with Inkscape (http://www.inkscape.org/) -->

<svg
   width="6.7685189in"
   height="0.99836618in"
   viewBox="0 0 171.92038 25.358501"
   version="1.1"
   id="svg1"
   xml:space="preserve"
   inkscape:version="1.4 (86a8ad7, 2024-10-11)"
   sodipodi:docname="traveling2white.svg"
   xmlns:inkscape="http://www.inkscape.org/namespaces/inkscape"
   xmlns:sodipodi="http://sodipodi.sourceforge.net/DTD/sodipodi-0.dtd"
   xmlns="http://www.w3.org/2000/svg"
   xmlns:svg="http://www.w3.org/2000/svg"><sodipodi:namedview
     id="namedview1"
     pagecolor="#505050"
     bordercolor="#eeeeee"
     borderopacity="1"
     inkscape:showpageshadow="0"
     inkscape:pageopacity="0"
     inkscape:pagecheckerboard="0"
     inkscape:deskcolor="#505050"
     inkscape:document-units="mm"
     inkscape:zoom="2"
     inkscape:cx="281.75"
     inkscape:cy="120.75"
     inkscape:window-width="1920"
     inkscape:window-height="991"
     inkscape:window-x="-9"
     inkscape:window-y="-9"
     inkscape:window-maximized="1"
     inkscape:current-layer="layer1" /><defs
     id="defs1"><inkscape:path-effect
       effect="fillet_chamfer"
       id="path-effect21"
       is_visible="true"
       lpeversion="1"
       nodesatellites_param="F,0,0,1,0,0,0,1 @ F,0,0,1,0,0,0,1 @ F,0,0,1,0,0,0,1 @ F,0,0,1,0,0.48629858,0,1 @ F,0,0,1,0,0.65130235,0,1 @ F,0,0,1,0,0.59158543,0,1 @ F,0,0,1,0,0.51826886,0,1 @ F,0,0,1,0,0.15378996,0,1 @ F,0,0,1,0,0.15785564,0,1 @ F,0,0,1,0,0.42979157,0,1 @ F,0,0,1,0,0.44932325,0,1 @ F,0,0,1,0,0.17536179,0,1 @ F,0,0,1,0,0.19766711,0,1 @ F,0,0,1,0,0.32837782,0,1 @ F,0,0,1,0,0,0,1"
       radius="0"
       unit="px"
       method="auto"
       mode="F"
       chamfer_steps="1"
       flexible="false"
       use_knot_distance="true"
       apply_no_radius="true"
       apply_with_radius="true"
       only_selected="false"
       hide_knots="false" /><inkscape:path-effect
       effect="fillet_chamfer"
       id="path-effect20"
       is_visible="true"
       lpeversion="1"
       nodesatellites_param="F,0,0,1,0,0,0,1 @ F,0,0,1,0,0.35293138,0,1 @ F,0,0,1,0,0.64103896,0,1 @ F,0,0,1,0,0.55763621,0,1 @ F,0,0,1,0,0.48057846,0,1 @ F,0,0,1,0,0.56067702,0,1 @ F,0,0,1,0,0.82926432,0,1 @ F,0,0,1,0,0.70706448,0,1 @ F,0,0,1,0,0.56674515,0,1 @ F,0,0,1,0,0.46922478,0,1 @ F,0,0,1,0,0.72331482,0,1 @ F,0,0,1,0,0.61392035,0,1 @ F,0,0,1,0,0.45761843,0,1 @ F,0,0,1,0,0.46922478,0,1 @ F,0,0,1,0,0.15423033,0,1 @ F,0,0,1,0,0.36124442,0,1 @ F,0,0,1,0,0.53374524,0,1 @ F,0,0,1,0,0.61697852,0,1 @ F,0,0,1,0,0.45304445,0,1 @ F,0,0,1,0,0.25639244,0,1 @ F,0,0,1,0,0.14915096,0,1 @ F,0,0,1,0,0.57539591,0,1 @ F,0,0,1,0,0.56221083,0,1 @ F,0,0,1,0,0,0,1"
       radius="0"
       unit="px"
       method="auto"
       mode="F"
       chamfer_steps="1"
       flexible="false"
       use_knot_distance="true"
       apply_no_radius="true"
       apply_with_radius="true"
       only_selected="false"
       hide_knots="false" /><inkscape:path-effect
       effect="fillet_chamfer"
       id="path-effect19"
       is_visible="true"
       lpeversion="1"
       nodesatellites_param="F,0,0,1,0,0.64799161,0,1 @ F,0,0,1,0,0.45052231,0,1 @ F,0,0,1,0,0.82751915,0,1 @ F,0,0,1,0,0.25927685,0,1 @ F,0,0,1,0,0.76382887,0,1 @ F,0,0,1,0,0.78858653,0,1 @ F,0,0,1,0,0.7137293,0,1 @ F,0,0,1,0,0.75521339,0,1 @ F,0,0,1,0,0.28065647,0,1 @ F,0,0,1,0,0.64799161,0,1"
       radius="0"
       unit="px"
       method="auto"
       mode="F"
       chamfer_steps="1"
       flexible="false"
       use_knot_distance="true"
       apply_no_radius="true"
       apply_with_radius="true"
       only_selected="false"
       hide_knots="false" /><inkscape:path-effect
       effect="fillet_chamfer"
       id="path-effect18"
       is_visible="true"
       lpeversion="1"
       nodesatellites_param="F,0,0,1,0,0.21563087,0,1 @ F,0,0,1,0,0.23549992,0,1 @ F,0,0,1,0,0.65423729,0,1 @ F,0,0,1,0,0.67282873,0,1 @ F,0,0,1,0,0.66030584,0,1 @ F,0,0,1,0,0.62018417,0,1 @ F,0,0,1,0,0.2458938,0,1 @ F,0,0,1,0,0.23549992,0,1 @ F,0,0,1,0,0.23549992,0,1 @ F,0,0,1,0,0.63408937,0,1 @ F,0,0,1,0,0.61293782,0,1 @ F,0,0,1,0,0.63053158,0,1"
       radius="0"
       unit="px"
       method="auto"
       mode="F"
       chamfer_steps="1"
       flexible="false"
       use_knot_distance="true"
       apply_no_radius="true"
       apply_with_radius="true"
       only_selected="false"
       hide_knots="false" /><inkscape:path-effect
       effect="fillet_chamfer"
       id="path-effect17"
       is_visible="true"
       lpeversion="1"
       nodesatellites_param="F,0,0,1,0,0,0,1 @ F,0,0,1,0,0,0,1 @ F,0,0,1,0,0,0,1 @ F,0,0,1,0,0,0,1 @ F,0,0,1,0,0,0,1 @ F,0,0,1,0,0,0,1 @ F,0,0,1,0,0,0,1 @ F,0,0,1,0,0,0,1 @ F,0,0,1,0,0,0,1 @ F,0,0,1,0,0,0,1 @ F,0,0,1,0,0,0,1 @ F,0,0,1,0,0,0,1"
       radius="0"
       unit="px"
       method="auto"
       mode="F"
       chamfer_steps="1"
       flexible="false"
       use_knot_distance="true"
       apply_no_radius="true"
       apply_with_radius="true"
       only_selected="false"
       hide_knots="false" /><inkscape:path-effect
       effect="fillet_chamfer"
       id="path-effect16"
       is_visible="true"
       lpeversion="1"
       nodesatellites_param="F,0,0,1,0,0.53439449,0,1 @ F,0,0,1,0,0.48466169,0,1 @ F,0,0,1,0,0.63159224,0,1 @ F,0,0,1,0,0.55975722,0,1 @ F,0,0,1,0,0.60102233,0,1 @ F,0,0,1,0,0.21185078,0,1 @ F,0,0,1,0,0.50827915,0,1"
       radius="0"
       unit="px"
       method="auto"
       mode="F"
       chamfer_steps="1"
       flexible="false"
       use_knot_distance="true"
       apply_no_radius="true"
       apply_with_radius="true"
       only_selected="false"
       hide_knots="false" /><inkscape:path-effect
       effect="fillet_chamfer"
       id="path-effect15"
       is_visible="true"
       lpeversion="1"
       nodesatellites_param="F,0,0,1,0,0,0,1 @ F,0,0,1,0,0.29336455,0,1 @ F,0,0,1,0,0.43658575,0,1 @ F,0,0,1,0,0.21852176,0,1 @ F,0,0,1,0,0.52628087,0,1 @ F,0,0,1,0,0.35686959,0,1 @ F,0,0,1,0,0.60776684,0,1 @ F,0,0,1,0,0.12930269,0,1 @ F,0,0,1,0,0.12615543,0,1 @ F,0,0,1,0,0.44910135,0,1 @ F,0,0,1,0,0.4790715,0,1 @ F,0,0,1,0,0.12259414,0,1 @ F,0,0,1,0,0.12029257,0,1 @ F,0,0,1,0,0.37916744,0,1 @ F,0,0,1,0,0,0,1"
       radius="0"
       unit="px"
       method="auto"
       mode="F"
       chamfer_steps="1"
       flexible="false"
       use_knot_distance="true"
       apply_no_radius="true"
       apply_with_radius="true"
       only_selected="false"
       hide_knots="false" /><inkscape:path-effect
       effect="fillet_chamfer"
       id="path-effect14"
       is_visible="true"
       lpeversion="1"
       nodesatellites_param="F,0,0,1,0,0,0,1 @ F,0,0,1,0,0,0,1 @ F,0,0,1,0,0,0,1 @ F,0,0,1,0,0,0,1 @ F,0,0,1,0,0,0,1 @ F,0,0,1,0,0,0,1 @ F,0,0,1,0,0,0,1 @ F,0,0,1,0,0,0,1 @ F,0,0,1,0,0,0,1 @ F,0,0,1,0,0,0,1 @ F,0,0,1,0,0,0,1 @ F,0,0,1,0,0,0,1 @ F,0,0,1,0,0,0,1 @ F,0,0,1,0,0,0,1 @ F,0,0,1,0,0,0,1"
       radius="0"
       unit="px"
       method="auto"
       mode="F"
       chamfer_steps="1"
       flexible="false"
       use_knot_distance="true"
       apply_no_radius="true"
       apply_with_radius="true"
       only_selected="false"
       hide_knots="false" /><inkscape:path-effect
       effect="fillet_chamfer"
       id="path-effect13"
       is_visible="true"
       lpeversion="1"
       nodesatellites_param="F,0,0,1,0,0.6654233,0,1 @ F,0,0,1,0,1.025,0,1 @ F,0,0,1,0,0.89001882,0,1 @ F,0,0,1,0,0.8721908,0,1 @ F,0,0,1,0,0.81579698,0,1 @ F,0,0,1,0,0.27977047,0,1 @ F,0,0,1,0,0.66857705,0,1"
       radius="0"
       unit="px"
       method="auto"
       mode="F"
       chamfer_steps="1"
       flexible="false"
       use_knot_distance="true"
       apply_no_radius="true"
       apply_with_radius="true"
       only_selected="false"
       hide_knots="false" /><inkscape:path-effect
       effect="fillet_chamfer"
       id="path-effect11"
       is_visible="true"
       lpeversion="1"
       nodesatellites_param="F,0,0,1,0,0.67948044,0,1 @ F,0,0,1,0,0.53235161,0,1 @ F,0,0,1,0,0.55396415,0,1 @ F,0,0,1,0,0.62247489,0,1 @ F,0,0,1,0,0.5541668,0,1 @ F,0,0,1,0,0.068394196,0,1 @ F,0,0,1,0,0.76000273,0,1"
       radius="0"
       unit="px"
       method="auto"
       mode="F"
       chamfer_steps="1"
       flexible="false"
       use_knot_distance="true"
       apply_no_radius="true"
       apply_with_radius="true"
       only_selected="false"
       hide_knots="false" /><inkscape:path-effect
       effect="fillet_chamfer"
       id="path-effect10"
       is_visible="true"
       lpeversion="1"
       nodesatellites_param="F,0,0,1,0,0,0,1 @ F,0,0,1,0,0.5433194,0,1 @ F,0,0,1,0,0.5376669,0,1 @ F,0,0,1,0,0,0,1"
       radius="0"
       unit="px"
       method="auto"
       mode="F"
       chamfer_steps="1"
       flexible="false"
       use_knot_distance="true"
       apply_no_radius="true"
       apply_with_radius="true"
       only_selected="false"
       hide_knots="false" /><inkscape:path-effect
       effect="fillet_chamfer"
       id="path-effect9"
       is_visible="true"
       lpeversion="1"
       nodesatellites_param="F,0,0,1,0,0,0,1 @ F,0,0,1,0,0.43843052,0,1 @ F,0,0,1,0,0.40461478,0,1 @ F,0,0,1,0,0.5874674,0,1 @ F,0,0,1,0,0,0,1 @ F,0,0,1,0,0,0,1 @ F,0,0,1,0,0.34665996,0,1 @ F,0,0,1,0,0.38144159,0,1 @ F,0,0,1,0,0,0,1"
       radius="0"
       unit="px"
       method="auto"
       mode="F"
       chamfer_steps="1"
       flexible="false"
       use_knot_distance="true"
       apply_no_radius="true"
       apply_with_radius="true"
       only_selected="false"
       hide_knots="false" /><inkscape:path-effect
       effect="fillet_chamfer"
       id="path-effect8"
       is_visible="true"
       lpeversion="1"
       nodesatellites_param="F,0,0,1,0,0.72950807,0,1 @ F,0,0,1,0,0.57209444,0,1 @ F,0,0,1,0,0,0,1 @ F,0,0,1,0,0.66865798,0,1"
       radius="0"
       unit="px"
       method="auto"
       mode="F"
       chamfer_steps="1"
       flexible="false"
       use_knot_distance="true"
       apply_no_radius="true"
       apply_with_radius="true"
       only_selected="false"
       hide_knots="false" /><inkscape:path-effect
       effect="fillet_chamfer"
       id="path-effect7"
       is_visible="true"
       lpeversion="1"
       nodesatellites_param="F,0,0,1,0,0,0,1 @ F,0,0,1,0,0,0,1 @ F,0,0,1,0,0,0,1 @ F,0,0,1,0,0,0,1 @ F,0,0,1,0,0,0,1 @ F,0,0,1,0,0,0,1 @ F,0,0,1,0,0,0,1 @ F,0,0,1,0,0,0,1 @ F,0,0,1,0,0,0,1 @ F,0,0,1,0,0,0,1 @ F,0,0,1,0,0,0,1 @ F,0,0,1,0,0,0,1 @ F,0,0,1,0,0,0,1 @ F,0,0,1,0,0,0,1 @ F,0,0,1,0,0,0,1 @ F,0,0,1,0,0,0,1 @ F,0,0,1,0,1.2750612,0,1"
       radius="0"
       unit="px"
       method="auto"
       mode="F"
       chamfer_steps="1"
       flexible="false"
       use_knot_distance="true"
       apply_no_radius="true"
       apply_with_radius="true"
       only_selected="false"
       hide_knots="false" /><inkscape:path-effect
       effect="fillet_chamfer"
       id="path-effect6"
       is_visible="true"
       lpeversion="1"
       nodesatellites_param="F,0,0,1,0,0,0,1 @ F,0,0,1,0,0.7293796,0,1 @ F,0,0,1,0,0.71775646,0,1 @ F,0,0,1,0,0,0,1 @ F,0,0,1,0,0.45387346,0,1 @ F,0,0,1,0,0.53527808,0,1 @ F,0,0,1,0,0.38555032,0,1 @ F,0,1,1,0,0.7293796,0,1"
       radius="0"
       unit="px"
       method="auto"
       mode="F"
       chamfer_steps="1"
       flexible="false"
       use_knot_distance="true"
       apply_no_radius="true"
       apply_with_radius="true"
       only_selected="false"
       hide_knots="false" /><inkscape:path-effect
       effect="fillet_chamfer"
       id="path-effect5"
       is_visible="true"
       lpeversion="1"
       nodesatellites_param="F,0,0,1,0,0,0,1 @ F,0,0,1,0,0,0,1 @ F,0,0,1,0,0,0,1 @ F,0,0,1,0,0,0,1 @ F,0,0,1,0,0,0,1 @ F,0,0,1,0,0,0,1 @ F,0,0,1,0,0,0,1 @ F,0,0,1,0,0,0,1"
       radius="0"
       unit="px"
       method="auto"
       mode="F"
       chamfer_steps="1"
       flexible="false"
       use_knot_distance="true"
       apply_no_radius="true"
       apply_with_radius="true"
       only_selected="false"
       hide_knots="false" /><inkscape:path-effect
       effect="fillet_chamfer"
       id="path-effect4"
       is_visible="true"
       lpeversion="1"
       nodesatellites_param="F,0,0,1,0,0,0,1 @ F,0,0,1,0,0,0,1 @ F,0,0,1,0,0,0,1 @ F,0,0,1,0,0,0,1 @ F,0,0,1,0,0,0,1 @ F,0,0,1,0,0,0,1 @ F,0,0,1,0,0,0,1 @ F,0,0,1,0,0,0,1"
       radius="0"
       unit="px"
       method="auto"
       mode="F"
       chamfer_steps="1"
       flexible="false"
       use_knot_distance="true"
       apply_no_radius="true"
       apply_with_radius="true"
       only_selected="false"
       hide_knots="false" /><inkscape:path-effect
       effect="fillet_chamfer"
       id="path-effect3"
       is_visible="true"
       lpeversion="1"
       nodesatellites_param="F,0,0,1,0,0,0,1 @ F,0,0,1,0,0,0,1 @ F,0,0,1,0,0,0,1 @ F,0,0,1,0,0,0,1 @ F,0,0,1,0,0,0,1 @ F,0,0,1,0,0,0,1 @ F,0,0,1,0,0,0,1 @ F,0,0,1,0,0,0,1"
       radius="0"
       unit="px"
       method="auto"
       mode="F"
       chamfer_steps="1"
       flexible="false"
       use_knot_distance="true"
       apply_no_radius="true"
       apply_with_radius="true"
       only_selected="false"
       hide_knots="false" /><inkscape:path-effect
       effect="fillet_chamfer"
       id="path-effect2"
       is_visible="true"
       lpeversion="1"
       nodesatellites_param="F,0,0,1,0,0,0,1 @ F,0,0,1,0,0,0,1 @ F,0,0,1,0,0,0,1 @ F,0,0,1,0,0,0,1 @ F,0,0,1,0,0,0,1 @ F,0,0,1,0,0,0,1 @ F,0,0,1,0,0,0,1 @ F,0,0,1,0,0,0,1"
       radius="0"
       unit="px"
       method="auto"
       mode="F"
       chamfer_steps="1"
       flexible="false"
       use_knot_distance="true"
       apply_no_radius="true"
       apply_with_radius="true"
       only_selected="false"
       hide_knots="false" /></defs><g
     inkscape:label="Capa 1"
     inkscape:groupmode="layer"
     id="layer1"
     transform="translate(-15.812591,-21.179984)"><path
       style="fill:#000000;stroke-width:1.00012"
       d="m 15.812591,21.271914 6.640109,-0.09193 c -0.0488,3.871055 1.93043,6.158176 6.267545,6.603736 l 0.04803,6.291558 c -2.90766,-0.07563 -4.869374,-0.718834 -6.339585,-1.656937 -0.243885,2.802903 0.229973,4.477922 1.104625,5.523124 0.981574,0.983488 2.232912,2.134067 4.214383,2.353331 1.906444,-0.01855 3.972092,0.02339 5.439077,-1.752991 1.051264,-1.073404 1.842118,-2.396865 2.017141,-4.49054 l 6.219518,-0.02402 c 0.021,2.669974 -0.558709,5.109888 -2.041155,7.204074 -1.10007,1.388292 -2.430279,2.565623 -3.914214,3.602038 -1.5684,0.915716 -3.049818,1.331287 -4.49054,1.512856 -1.814701,0.295733 -3.346101,0.213733 -4.778703,0 C 24.700742,46.135334 23.326821,45.531287 22.020459,44.7133 20.727008,43.757479 19.551817,42.683398 18.514476,41.471466 17.457087,40.264557 16.708934,38.685865 16.19211,36.790348 16.006898,36.11106 15.892184,34.97962 15.888096,34.275435 Z"
       id="path1"
       sodipodi:nodetypes="cccccccccccccccccc"
       inkscape:path-effect="#path-effect7"
       inkscape:original-d="m 15.812591,21.271914 6.640109,-0.09193 c -0.0488,3.871055 1.93043,6.158176 6.267545,6.603736 l 0.04803,6.291558 c -2.90766,-0.07563 -4.869374,-0.718834 -6.339585,-1.656937 -0.243885,2.802903 0.229973,4.477922 1.104625,5.523124 0.981574,0.983488 2.232912,2.134067 4.214383,2.353331 1.906444,-0.01855 3.972092,0.02339 5.439077,-1.752991 1.051264,-1.073404 1.842118,-2.396865 2.017141,-4.49054 l 6.219518,-0.02402 c 0.021,2.669974 -0.558709,5.109888 -2.041155,7.204074 -1.10007,1.388292 -2.430279,2.565623 -3.914214,3.602038 -1.5684,0.915716 -3.049818,1.331287 -4.49054,1.512856 -1.814701,0.295733 -3.346101,0.213733 -4.778703,0 -1.49808,-0.210879 -2.872001,-0.814926 -4.178363,-1.632913 -1.293451,-0.955821 -2.468642,-2.029902 -3.505983,-3.241834 -1.280187,-1.461212 -2.107094,-3.467386 -2.618977,-5.920991 z" /><path
       style="color:#000000;font-style:normal;font-variant:normal;font-weight:normal;font-stretch:normal;font-size:medium;line-height:normal;font-family:sans-serif;font-variant-ligatures:normal;font-variant-position:normal;font-variant-caps:normal;font-variant-numeric:normal;font-variant-alternates:normal;font-variant-east-asian:normal;font-feature-settings:normal;font-variation-settings:normal;text-indent:0;text-align:start;text-decoration-line:none;text-decoration-style:solid;text-decoration-color:#000000;letter-spacing:normal;word-spacing:normal;text-transform:none;writing-mode:lr-tb;direction:ltr;text-orientation:mixed;dominant-baseline:auto;baseline-shift:baseline;text-anchor:start;white-space:normal;shape-padding:0;shape-margin:0;inline-size:0;clip-rule:nonzero;display:inline;overflow:visible;visibility:visible;isolation:auto;mix-blend-mode:normal;color-interpolation:sRGB;color-interpolation-filters:linearRGB;solid-color:#000000;solid-opacity:1;vector-effect:none;fill:#ffffff;fill-opacity:1;fill-rule:nonzero;stroke:none;stroke-linecap:butt;stroke-linejoin:miter;stroke-miterlimit:4;stroke-dasharray:none;stroke-dashoffset:0;stroke-opacity:1;-inkscape-stroke:none;color-rendering:auto;image-rendering:auto;shape-rendering:auto;text-rendering:auto;enable-background:accumulate;stop-color:#000000;stop-opacity:1"
       d="m 60.322121,30.473237 -0.06624,8.323764 c -0.0032,0.402813 0.188779,1.000216 0.506908,1.245894 0.47453,0.366462 0.983978,0.436131 1.553756,-0.007 0.312125,-0.242757 0.503833,-0.830867 0.504879,-1.227272 l 0.02213,-8.383394 3.916606,0.02152 c 0.250664,0.0014 0.611697,-0.126519 0.786634,-0.305925 0.54034,-0.554143 0.775488,-1.151884 0.06904,-1.884138 -0.20506,-0.212552 -0.641459,-0.352884 -0.937085,-0.352884 l -10.629714,0 c -0.212933,0 -0.528242,0.09839 -0.686495,0.2407 -0.65676,0.590604 -0.711826,1.175525 -0.304905,1.738316 0.235276,0.325399 0.836307,0.523344 1.239086,0.529447 z"
       id="path2"
       sodipodi:nodetypes="ccccccccc"
       inkscape:path-effect="#path-effect6"
       inkscape:original-d="m 60.322121,30.473237 -0.07204,9.053121 c 0.748215,0.920291 1.566326,1.246463 2.569453,0 l 0.02402,-9.101148 4.370473,0.02401 c 0.85015,-0.72703 1.365094,-1.501947 0,-2.54544 H 55.663485 c -1.190205,0.8563 -1.081181,1.705374 -0.09606,2.497413 z" /><path
       style="fill:#ffffff;stroke-width:1.00012;fill-opacity:1"
       d="m 70.710202,38.766378 0.05939,-9.056329 c 0.0021,-0.315952 0.147826,-0.787032 0.372718,-1.008465 0.634834,-0.625069 1.249922,-0.559072 1.838455,0.436383 l -0.06351,9.621339 c -0.0024,0.369281 -0.149739,0.939588 -0.418634,1.191262 -0.417336,0.390609 -0.846373,0.395066 -1.285522,0.06584 -0.321309,-0.240881 -0.505537,-0.847145 -0.502895,-1.250032 z"
       id="path8"
       sodipodi:nodetypes="ccccc"
       inkscape:path-effect="#path-effect8"
       inkscape:original-d="m 70.705418,39.49587 0.06792,-10.357903 c 0.765876,-1.052394 1.505534,-1.187186 2.207422,0 l -0.06792,10.289982 c -0.702462,1.123052 -1.440947,1.057299 -2.207422,0.06792 z" /><path
       style="fill:#ffffff;stroke-width:1.00012;fill-opacity:1"
       d="m 71.938691,28.297007 7.090077,-0.05556 c 0.242131,-0.0019 0.624941,0.05876 0.847478,0.154065 1.355596,0.580538 2.185654,1.563615 2.478015,2.958546 0.04583,0.218657 0.06391,0.580179 0.0441,0.802728 -0.122091,1.371295 -0.693967,2.515429 -2.352085,3.110954 -0.305221,0.109623 -0.825125,0.168545 -1.14957,0.166918 l -6.187627,-0.03102 0.03396,-1.562176 h 5.78318 c 0.191455,0 0.471444,-0.09256 0.617458,-0.216356 1.467543,-1.244219 1.191028,-2.327887 -0.02004,-3.191117 -0.171466,-0.122218 -0.489452,-0.209934 -0.700115,-0.210715 l -6.49553,-0.02406 z"
       id="path9"
       sodipodi:nodetypes="cccccccccc"
       inkscape:path-effect="#path-effect9"
       inkscape:original-d="m 71.938691,28.297007 7.528494,-0.05899 c 1.73386,0.597922 2.725534,1.764326 2.954549,3.514895 -0.04936,1.697841 -0.659887,3.112269 -2.937571,3.684696 l -6.775087,-0.03396 0.03396,-1.562176 h 6.12984 c 1.905045,-1.439391 1.482513,-2.674567 -0.06792,-3.616775 l -6.876969,-0.02547 z" /><path
       style="fill:#ffffff;stroke-width:1.00012;fill-opacity:1"
       d="m 76.711391,35.191906 3.63346,4.511637 c 0.188212,0.233701 0.57413,0.500544 0.871905,0.534683 0.741008,0.08495 1.157497,-0.226732 1.182703,-1.016652 0.0095,-0.29626 -0.188255,-0.719546 -0.379933,-0.94634 L 79.22081,34.963777 Z"
       id="path10"
       sodipodi:nodetypes="ccccc"
       inkscape:path-effect="#path-effect10"
       inkscape:original-d="m 76.711391,35.191906 3.974248,4.934791 c 1.2486,0.360964 1.872583,-0.04149 1.680951,-1.440815 l -3.14578,-3.722105 z" /><path
       style="fill:#ffffff;stroke-width:1.00012;fill-opacity:1"
       d="m 85.400539,38.154722 5.032069,-9.060764 c 0.142748,-0.257031 0.43133,-0.632198 0.675556,-0.795387 0.766681,-0.512284 1.520505,-0.497482 2.263397,-0.03445 0.259369,0.16166 0.561405,0.548876 0.7064,0.818282 l 4.825173,8.965384 c 0.162926,0.302724 0.31656,0.828872 0.273406,1.169567 -0.127824,1.009154 -0.734167,1.061275 -1.534928,0.724557 C 97.359631,39.823341 97.02613,39.48106 96.881297,39.21144 l -4.612661,-8.586889 a 0.03717397,0.03717397 0.28161619 0 0 -0.06532,-3.21e-4 l -4.745823,8.63019 c -0.202254,0.367795 -0.669474,0.834743 -1.077639,0.929021 -0.695997,0.160761 -1.107499,-0.100632 -1.251286,-0.759279 -0.07985,-0.365779 0.08977,-0.941372 0.271973,-1.26944 z"
       id="path11"
       sodipodi:nodetypes="cccccccc"
       inkscape:path-effect="#path-effect11"
       inkscape:original-d="m 85.070639,38.748742 5.620436,-10.12018 c 1.064927,-0.973882 2.10469,-0.916044 3.12435,-0.03396 l 5.382713,10.001318 c 0.06667,1.87097 -0.863756,1.747759 -2.054598,1.10371 l -4.90727,-9.13533 -5.144992,9.356072 c -1.386683,0.66766 -2.037575,0.2435 -2.020639,-1.17163 z" /><path
       style="fill:#ffffff;stroke-width:1.00012;fill-opacity:1"
       d="m 88.351975,37.19704 7.636912,-0.03594 -0.993341,-1.859327 -5.594963,0.03396 z"
       id="path12" /><path
       style="fill:#ffffff;stroke-width:1.00012;fill-opacity:1"
       d="m 101.72661,29.958543 4.88976,8.87724 c 0.27312,0.495847 0.83807,1.225182 1.35894,1.441246 0.56882,0.235949 1.12552,0.223711 1.67077,-0.02342 0.4462,-0.202233 0.93375,-0.83536 1.1703,-1.266242 l 4.67051,-8.507522 c 0.23181,-0.422252 0.44346,-1.164096 0.32274,-1.629226 -0.2052,-0.790694 -0.73146,-0.987933 -1.54407,-0.655861 -0.41653,0.170216 -0.89223,0.704507 -1.10571,1.101278 l -4.2863,7.966776 a 0.15174695,0.15174695 179.80596 0 1 -0.26678,9.04e-4 l -4.60512,-8.422109 c -0.17714,-0.323976 -0.5914,-0.723677 -0.94984,-0.81012 -0.77562,-0.187054 -1.24348,0.08754 -1.48597,0.700182 -0.13489,0.340806 -0.0165,0.904969 0.16077,1.22687 z"
       id="path13"
       sodipodi:nodetypes="cccccccc"
       inkscape:path-effect="#path-effect13"
       inkscape:original-d="m 101.40556,29.37569 5.70534,10.357903 c 1.13848,0.956174 2.22924,0.934161 3.27717,0.03396 l 5.51855,-10.052259 c -0.0175,-1.801166 -0.84876,-2.098107 -2.36024,-1.137671 L 108.74099,37.509191 103.6809,28.255 c -1.44244,-0.652426 -2.09904,-0.12609 -2.27534,1.12069 z" /><path
       style="fill:#ffffff;stroke-width:1.00012;fill-opacity:1"
       d="m 133.46554,28.97187 0.0212,9.785318 c 5.8e-4,0.267671 0.0739,0.692971 0.22463,0.913458 0.11288,0.165135 0.25088,0.311916 0.41698,0.438159 0.27679,0.210369 0.8349,0.300198 1.1837,0.297549 l 8.04619,-0.06111 c 0.30914,-0.0023 0.74911,-0.174008 0.92243,-0.429373 0.3758,-0.553722 0.35268,-1.077336 0.0518,-1.579989 -0.17011,-0.284218 -0.6368,-0.473815 -0.96873,-0.473815 h -7.06824 a 0.21356817,0.21356817 44.768701 0 1 -0.21356,-0.211844 l -0.0702,-8.69279 c -0.002,-0.280706 -0.17776,-0.660212 -0.42622,-0.789824 -0.52485,-0.273797 -1.0783,-0.283786 -1.66316,-0.0041 -0.26593,0.127149 -0.45748,0.513264 -0.45684,0.808401 z"
       id="path16"
       sodipodi:nodetypes="cccccccc"
       inkscape:path-effect="#path-effect16"
       inkscape:original-d="m 133.46438,28.437477 0.0234,10.804372 c 0.20532,0.530251 0.58223,0.935115 1.19269,1.169302 l 9.2375,-0.07016 c 0.91859,-0.894459 0.7777,-1.708957 0.0468,-2.478926 h -7.88111 l -0.076,-9.412897 c -0.77928,-0.635433 -1.6237,-0.670137 -2.54328,-0.01169 z" /><path
       style="fill:#ffffff;stroke-width:1.00012;fill-opacity:1"
       d="m 150.05182,30.560863 0,7.187881 a 0.23883988,0.23883988 134.59657 0 1 -0.23548,0.238816 l -1.45853,0.02054 c -0.36129,0.0051 -0.9094,0.170767 -1.12897,0.456267 -0.3058,0.397629 -0.33496,0.83154 0.013,1.314914 0.21655,0.300799 0.76299,0.486275 1.13459,0.485392 l 5.62872,-0.01337 c 0.36467,-8.67e-4 0.90339,-0.183907 1.10733,-0.484967 0.31471,-0.464579 0.2583,-0.883582 -0.0308,-1.274011 -0.20328,-0.274543 -0.71041,-0.439753 -1.05291,-0.437056 l -1.23408,0.0097 a 0.24344412,0.24344412 44.835592 0 1 -0.24536,-0.243956 l 0.0155,-7.241134 a 0.23778516,0.23778516 134.84577 0 1 0.23599,-0.23727 l 1.72837,-0.013 c 0.13006,-9.78e-4 0.31073,-0.07584 0.39626,-0.1738 0.52463,-0.600898 0.61482,-1.154404 0.2658,-1.659996 -0.19814,-0.28703 -0.72696,-0.449361 -1.07716,-0.448565 l -6.02902,0.01371 c -0.33852,7.69e-4 -0.84221,0.165081 -1.04011,0.43855 -0.35554,0.491293 -0.27262,0.951818 0.0326,1.396741 0.1967,0.2867 0.69153,0.475133 1.03974,0.471142 l 1.71885,-0.0197 a 0.21317327,0.21317327 44.671625 0 1 0.21562,0.213159 z"
       id="path17"
       sodipodi:nodetypes="ccccccccccccc"
       inkscape:path-effect="#path-effect18"
       inkscape:original-d="m 150.05182,30.345232 v 7.639012 l -2.34818,0.03307 c -0.86533,0.636167 -1.03361,1.363751 0,2.248959 l 6.96185,-0.01654 c 0.99782,-0.856331 0.75634,-1.560467 -0.0165,-2.199349 l -2.10013,0.01654 0.0165,-7.722526 2.19935,-0.01654 c 0.8498,-0.853982 0.84868,-1.615137 -0.0165,-2.282031 l -7.27605,0.01654 c -1.04014,0.844092 -0.70957,1.591993 0.0147,2.312267 z" /><path
       style="fill:#ffffff;stroke-width:1.00012;fill-opacity:1"
       d="m 158.67458,38.968033 v -9.963104 c 0,-0.248816 0.14675,-0.590882 0.35223,-0.730833 0.49565,-0.337572 1.00975,-0.44439 1.54935,-0.232436 0.42324,0.166247 0.94735,0.713173 1.25953,1.046958 l 6.69441,7.157538 a 0.10235427,0.10235427 158.45747 0 0 0.17711,-0.06992 v -6.5306 c 0,-0.421851 0.18548,-1.060818 0.50598,-1.333521 0.5031,-0.428087 1.03643,-0.473388 1.60779,-0.03695 0.34514,0.263643 0.54596,0.912876 0.53822,1.348332 l -0.16038,9.02166 c -0.007,0.39412 -0.15828,1.006675 -0.43191,1.289025 -0.63488,0.655102 -1.31105,0.443055 -2.00217,-0.08281 -0.33179,-0.252457 -0.80753,-0.735216 -1.09804,-1.0345 l -6.24756,-6.436242 a 0.11381365,0.11381365 157.92614 0 0 -0.19548,0.07927 v 6.508125 c 0,0.357876 -0.17117,0.888498 -0.44701,1.115468 -0.60486,0.497691 -1.13724,0.379338 -1.63683,-0.01783 -0.27971,-0.222375 -0.46524,-0.739759 -0.46524,-1.097635 z"
       id="path18"
       sodipodi:nodetypes="ccccccccccc"
       inkscape:path-effect="#path-effect19"
       inkscape:original-d="M 158.67458,39.616025 V 28.554407 c 0.80838,-0.734713 1.66294,-0.892101 2.59585,-0.07016 l 7.43678,7.951269 V 28.88181 c 0.80113,-1.124396 1.67795,-1.29018 2.66601,-0.04677 l -0.18709,10.523739 c -0.92145,1.603473 -1.94878,0.983411 -2.99342,0 l -6.96905,-7.179527 v 7.436773 c -0.99822,1.262446 -1.79815,0.839512 -2.54908,0 z" /><path
       style="fill:#ffffff;stroke-width:1.00012;fill-opacity:1"
       d="m 186.59756,29.747097 c -0.63582,-0.640561 -1.462,-1.194596 -2.65564,-1.581604 -0.1854,-0.06011 -0.49264,-0.133855 -0.68484,-0.16623 -0.70794,-0.119249 -1.41589,-0.168589 -2.12384,-0.143133 -0.35374,0.01272 -0.92723,0.04735 -1.27854,0.09009 -0.87259,0.106151 -1.71388,0.384406 -2.52654,0.820095 -0.27138,0.145494 -0.69857,0.405547 -0.94834,0.585569 -0.79449,0.572636 -1.40735,1.293882 -1.82507,2.174787 -0.11369,0.23976 -0.24001,0.651048 -0.29111,0.911477 -0.16559,0.84393 -0.22589,1.701022 -0.13703,2.57676 0.0313,0.307999 0.15887,0.792596 0.27687,1.078853 0.35145,0.852576 0.84529,1.713063 1.75291,2.596539 0.32811,0.319384 0.93063,0.754937 1.33634,0.96717 0.70726,0.36998 1.48091,0.64867 2.38889,0.742659 0.38815,0.04018 1.02235,0.03088 1.41246,0.01366 1.0192,-0.04501 1.99717,-0.16424 2.86491,-0.481904 0.29373,-0.10753 0.74443,-0.343082 1.00836,-0.511263 0.7348,-0.468243 1.37002,-1.036073 1.84619,-1.762955 0.14193,-0.21667 0.32826,-0.594184 0.41684,-0.837649 0.14842,-0.407971 0.25171,-0.838515 0.29511,-1.299 0.0374,-0.3974 -0.0683,-1.038479 -0.25276,-1.392254 -0.40858,-0.783715 -0.94726,-1.003606 -1.50994,-1.119565 -0.33198,-0.06842 -0.87952,-0.100749 -1.21854,-0.09553 l -3.48888,0.05368 c -0.2527,0.0039 -0.63947,0.103573 -0.84329,0.252771 -0.67047,0.490813 -0.79214,1.022786 -0.005,1.622922 0.20599,0.157049 0.60077,0.257246 0.8599,0.25449 l 3.77316,-0.04014 c 0.0852,-9.06e-4 0.17348,0.06475 0.19149,0.147994 0.15076,0.696763 -0.057,1.230537 -0.35606,1.722853 -0.10328,0.170032 -0.33018,0.392593 -0.50305,0.492142 -0.6967,0.401216 -1.39339,0.611913 -2.09009,0.748447 -0.2892,0.05668 -0.76317,0.121614 -1.05754,0.136109 -0.76726,0.03778 -1.51459,-0.054 -2.22603,-0.37906 -0.3096,-0.141459 -0.757,-0.468717 -1.00952,-0.697431 -0.56107,-0.50817 -1.0459,-1.08411 -1.33366,-1.835213 -0.0894,-0.233338 -0.16014,-0.633178 -0.16092,-0.883286 -0.002,-0.759996 0.17674,-1.574443 0.55048,-2.447275 0.0557,-0.130164 0.18153,-0.319166 0.27965,-0.421256 0.82178,-0.855028 1.72546,-1.486482 2.79874,-1.637021 0.0815,-0.01143 0.21352,-0.0304 0.29476,-0.04397 0.74927,-0.125134 1.50464,-0.105169 2.25579,0.0593 0.31032,0.06795 0.80986,0.208013 1.09122,0.353289 0.38302,0.197765 0.84525,0.507773 1.27959,0.819362 0.2522,0.180922 0.71305,0.318618 0.996,0.193818 0.72987,-0.321923 0.8966,-1.09119 0.55654,-1.639092 z"
       id="path19"
       sodipodi:nodetypes="ccccccccccccccccccccccccc"
       inkscape:path-effect="#path-effect20"
       inkscape:original-d="m 186.59756,29.747097 c -0.69413,-0.699302 -1.61512,-1.29548 -2.99342,-1.683796 -1.03678,-0.207907 -2.07357,-0.267594 -3.11035,-0.163703 -1.27977,0.03169 -2.49318,0.428305 -3.64823,1.145918 -1.16375,0.698332 -2.00113,1.663692 -2.47892,2.92326 -0.28378,1.171834 -0.37816,2.367344 -0.16371,3.601458 0.4299,1.200117 1.03274,2.409841 2.57247,3.671615 1.06922,0.67453 2.24753,1.199054 3.81194,1.192688 1.48448,-0.02512 2.91664,-0.144427 4.09256,-0.724969 1.07954,-0.596466 1.99062,-1.361385 2.57247,-2.455537 0.33451,-0.733108 0.5302,-1.535629 0.49111,-2.455539 -0.54246,-1.726324 -1.48145,-1.73433 -2.38538,-1.894274 l -4.56029,0.07016 c -1.10896,0.626206 -1.37936,1.315304 0,2.128134 l 4.39658,-0.04677 c 0.2589,0.920606 -0.0986,1.561005 -0.51449,2.174906 -0.97442,0.643036 -1.94884,0.879918 -2.92326,1.028989 -1.15252,0.136471 -2.26912,0.03943 -3.29744,-0.631426 -0.86279,-0.696872 -1.63354,-1.475556 -1.94104,-2.666013 -0.0966,-0.952447 0.10445,-1.994208 0.63142,-3.133735 0.90553,-0.989579 1.90544,-1.723092 3.12205,-1.841654 0.98221,-0.189114 1.97612,-0.128247 2.95833,0.181243 0.50552,0.08326 1.50716,0.789019 2.26845,1.356393 1.17864,-0.122976 1.51153,-1.112929 1.09915,-1.777351 z" /><path
       style="fill:#000000;stroke-width:1.00012"
       d="m 129.30165,40.177291 -9.54152,-0.02339 c -0.52691,-0.121698 -0.96727,-0.373208 -1.12253,-1.052373 l 0.0445,-9.40602 c 0.001,-0.268572 0.0101,-0.713814 0.12947,-0.952576 0.0753,-0.150571 0.18361,-0.286731 0.32747,-0.403648 0.27758,-0.225614 0.86595,-0.299373 1.22565,-0.299373 h 8.48572 c 0.32673,0 0.81618,0.153079 1.01335,0.412434 0.36814,0.484251 0.34875,1.020174 -0.11767,1.6157 -0.1763,0.225092 -0.58291,0.378047 -0.86913,0.374857 l -7.72358,-0.08606 a 0.15350145,0.15350145 135.58461 0 0 -0.1552,0.152069 l -0.0205,2.214067 a 0.15639992,0.15639992 45.265408 0 0 0.1564,0.157849 h 6.19431 c 0.23737,0 0.57775,0.126096 0.72344,0.313135 0.42861,0.550259 0.38375,1.082307 -0.0142,1.600777 -0.1509,0.196627 -0.50407,0.330451 -0.75222,0.329586 l -6.08712,-0.02121 a 0.17615617,0.17615617 135.32915 0 0 -0.17676,0.174745 l -0.0204,2.550242 a 0.19664108,0.19664108 45.30954 0 0 0.19609,0.198215 l 7.82278,0.02191 c 0.18136,5.08e-4 0.45195,0.08453 0.57257,0.219466 0.60298,0.674553 0.4451,1.758081 -0.29089,1.909604 z"
       id="path20"
       sodipodi:nodetypes="cccccccccccccccc"
       inkscape:path-effect="#path-effect21"
       inkscape:original-d="m 129.30165,40.177291 -9.54152,-0.02339 c -0.52691,-0.121698 -0.96727,-0.373208 -1.12253,-1.052373 l 0.0468,-9.892313 c 0.043,-0.522052 0.36414,-0.955568 1.02899,-1.169304 h 9.72861 c 0.88602,0.682706 0.93757,1.476675 -0.0468,2.408766 l -8.3956,-0.09355 -0.0234,2.525699 h 6.78196 c 0.8575,0.781635 0.73896,1.525731 -0.0234,2.245064 l -6.7118,-0.02339 -0.0234,2.923259 8.34883,0.02338 c 0.87628,0.625772 0.77572,1.958834 -0.0467,2.12815 z" /><path
       style="fill:#ffffff;stroke-width:0.4725;fill-opacity:1;stroke:#ffffff;stroke-opacity:1"
       d="M 399.4375,71.627948 392.25,71.5625 391.38774,71.141033 c -1.05748,-0.516893 -1.79438,-1.23354 -2.27381,-2.211313 L 388.75,68.1875 388.79008,50 c 0.022,-10.003125 0.0928,-18.745825 0.15714,-19.428222 0.24645,-2.611896 1.3142,-3.796978 3.90229,-4.331071 1.09685,-0.226352 1.94037,-0.237499 18.0907,-0.239065 16.03621,-0.0016 16.98423,0.01057 17.76535,0.227165 1.49776,0.415317 2.19033,0.963162 2.87117,2.271193 0.23937,0.459871 0.29329,0.757396 0.29553,1.630708 0.003,0.983611 -0.0339,1.142002 -0.46009,2 -0.25455,0.512486 -0.64011,1.144883 -0.85679,1.405328 -0.46332,0.556898 -1.56882,1.148687 -2.43853,1.30538 -0.36757,0.06622 -6.60295,0.04314 -15.42935,-0.05713 l -14.8125,-0.168261 -0.21875,0.268334 c -0.19913,0.244261 -0.21875,0.66381 -0.21875,4.67668 0,3.504998 0.0339,4.436485 0.16546,4.545662 0.11708,0.09717 3.74486,0.147326 12.40897,0.171556 l 12.24352,0.03424 0.82683,0.407098 c 0.90969,0.447888 1.30759,0.88257 1.83166,2.00097 0.27382,0.584338 0.33536,0.892731 0.33277,1.667471 -0.003,0.841581 -0.0565,1.058355 -0.46805,1.891116 -0.55194,1.116786 -1.16984,1.717018 -2.14199,2.080745 -0.70391,0.263364 -0.78703,0.2651 -12.69493,0.2651 -10.73004,0 -12.00697,0.02059 -12.18281,0.196429 -0.17223,0.172231 -0.19643,0.832482 -0.19643,5.359694 0,4.649788 0.0206,5.180327 0.20666,5.334822 0.17175,0.142575 2.78476,0.182113 15.46875,0.234055 l 15.26209,0.0625 0.71627,0.335701 c 0.597,0.279798 0.80023,0.465597 1.22044,1.115742 0.63665,0.985023 0.87579,1.788223 0.87579,2.941556 0,1.151505 -0.33341,2.081426 -0.96795,2.699744 -0.92116,0.897616 -0.15652,0.847908 -12.55928,0.816455 -6.13815,-0.01557 -14.39464,-0.05775 -18.34777,-0.09375 z"
       id="path3"
       transform="matrix(0.26458333,0,0,0.26458333,15.812591,21.179984)" /><path
       style="fill:#ffffff;fill-opacity:1;stroke:#ffffff;stroke-opacity:1"
       d="M 38.930099,94.761835 C 34.426592,93.944475 32.264526,93.242085 28.5,91.3734 22.636949,88.46302 16.923622,83.819655 11.429776,77.5 7.2590375,72.702335 4.483289,67.729755 2.4984043,61.5 0.70997455,55.88684 0.31833895,48.850798 0.279855,21.64202 L 0.25,0.53403955 12.435269,0.3920198 24.620539,0.25 l 0.552232,4.5 c 0.978688,7.975071 4.798341,13.807652 11.15791,17.038043 C 39.034051,23.16124 45.350877,25 47.364951,25 H 48.75 V 36.75 48.5 L 47.375,48.4971 C 41.958824,48.485442 32.057916,46.063655 27.812024,43.711898 26.608637,43.045354 25.401325,42.5 25.129109,42.5 c -0.313176,0 -0.411039,2.432975 -0.266481,6.625 0.304304,8.824455 1.235744,11.341325 5.89971,15.941775 6.455944,6.368025 12.699877,8.31017 22.483742,6.993465 5.615795,-0.755765 8.60536,-2.22568 12.36477,-6.079545 C 69.953445,61.529005 73.25,54.80939 73.25,50.40925 V 49 h 11.731185 11.73119 l -0.264015,3.375 c -0.642165,8.20899 -2.675645,15.21249 -6.04214,20.8097 -2.380205,3.95738 -10.3438,11.874495 -15.21845,15.12962 -7.018395,4.68665 -16.673675,7.225945 -27.150878,7.140555 -3.04529,-0.02482 -7.143347,-0.336685 -9.106793,-0.69304 z"
       id="path4"
       transform="matrix(0.26458333,0,0,0.26458333,15.812591,21.179984)"
       inkscape:label="path4" /></g></svg>
